<?xml version="1.0" standalone="no"?>
<!DOCTYPE svg PUBLIC "-//W3C//DTD SVG 20010904//EN"
 "http://www.w3.org/TR/2001/REC-SVG-20010904/DTD/svg10.dtd">
<svg version="1.0" xmlns="http://www.w3.org/2000/svg"
 width="228.000000pt" height="206.000000pt" viewBox="0 0 228.000000 206.000000"
 preserveAspectRatio="xMidYMid meet">

<g transform="translate(0.000000,206.000000) scale(0.100000,-0.100000)"
fill="#000000" stroke="none">
<path d="M849 1890 c-101 -17 -195 -81 -246 -167 -30 -52 -63 -153 -63 -194 0
-16 -6 -31 -12 -33 -7 -2 -38 -9 -68 -16 -148 -33 -246 -155 -257 -319 -12
-166 71 -339 206 -429 33 -22 65 -42 70 -44 7 -2 5 -36 -5 -92 -38 -217 34
-398 183 -463 67 -30 196 -22 338 21 194 59 184 59 485 -25 229 -64 396 46
431 283 10 71 3 183 -16 253 -5 16 4 25 42 45 106 56 206 196 233 327 47 223
-80 426 -280 450 -49 6 -50 7 -50 39 0 17 -8 59 -19 93 -48 153 -148 247 -287
270 -107 17 -208 -13 -303 -90 l-40 -32 -38 30 c-105 81 -199 110 -304 93z
m108 -221 c47 -17 111 -89 133 -147 33 -89 28 -195 -14 -258 -82 -126 -252
-61 -307 117 -23 73 -24 110 -4 176 29 98 108 144 192 112z m609 -30 c88 -85
80 -263 -16 -373 -42 -47 -79 -66 -130 -66 -52 0 -88 21 -120 68 -22 33 -25
47 -25 132 0 80 4 102 23 140 71 135 187 178 268 99z m-961 -378 c23 -10 60
-40 83 -66 90 -103 95 -253 10 -305 -101 -62 -245 40 -278 198 -13 60 -2 111
34 151 40 44 87 51 151 22z m1316 -17 c71 -68 56 -198 -32 -299 -62 -70 -145
-92 -207 -55 -114 69 -59 294 90 369 56 29 109 23 149 -15z m-641 -169 c227
-80 420 -348 420 -583 0 -159 -49 -191 -215 -141 -150 45 -173 50 -251 56 -95
7 -180 -6 -310 -48 -159 -51 -214 -40 -234 47 -42 177 51 407 224 555 134 114
257 153 366 114z"/>
</g>
</svg>
